<mxfile host="app.diagrams.net" agent="Mozilla/5.0 (Windows NT 10.0; Win64; x64) AppleWebKit/537.36 (KHTML, like Gecko) Chrome/130.0.0.0 Safari/537.36" version="24.8.4">
  <diagram name="Page-1" id="3NEETwi28LWin1lFvWzU">
    <mxGraphModel dx="2612" dy="2340" grid="1" gridSize="10" guides="1" tooltips="1" connect="1" arrows="1" fold="1" page="1" pageScale="1" pageWidth="850" pageHeight="1100" math="0" shadow="0">
      <root>
        <mxCell id="0" />
        <mxCell id="1" parent="0" />
        <mxCell id="KrxZb_zsHXh1Ge1TOmgq-1" value="&lt;u&gt;&lt;font style=&quot;font-size: 18px;&quot;&gt;project_id&lt;/font&gt;&lt;/u&gt;" style="rounded=0;whiteSpace=wrap;html=1;" vertex="1" parent="1">
          <mxGeometry x="390" y="-170" width="120" height="60" as="geometry" />
        </mxCell>
        <mxCell id="KrxZb_zsHXh1Ge1TOmgq-2" value="&lt;font style=&quot;font-size: 18px;&quot;&gt;name&lt;/font&gt;" style="rounded=0;whiteSpace=wrap;html=1;" vertex="1" parent="1">
          <mxGeometry x="510" y="-170" width="120" height="60" as="geometry" />
        </mxCell>
        <mxCell id="KrxZb_zsHXh1Ge1TOmgq-3" value="&lt;font style=&quot;font-size: 18px;&quot;&gt;description&lt;/font&gt;" style="rounded=0;whiteSpace=wrap;html=1;" vertex="1" parent="1">
          <mxGeometry x="630" y="-170" width="120" height="60" as="geometry" />
        </mxCell>
        <mxCell id="KrxZb_zsHXh1Ge1TOmgq-4" value="&lt;font style=&quot;font-size: 18px;&quot;&gt;created_at&lt;/font&gt;" style="rounded=0;whiteSpace=wrap;html=1;" vertex="1" parent="1">
          <mxGeometry x="750" y="-170" width="120" height="60" as="geometry" />
        </mxCell>
        <mxCell id="KrxZb_zsHXh1Ge1TOmgq-6" value="&lt;u&gt;&lt;font style=&quot;font-size: 18px;&quot;&gt;repo_id&lt;/font&gt;&lt;/u&gt;" style="rounded=0;whiteSpace=wrap;html=1;" vertex="1" parent="1">
          <mxGeometry x="120" y="180" width="120" height="60" as="geometry" />
        </mxCell>
        <mxCell id="KrxZb_zsHXh1Ge1TOmgq-7" value="&lt;font style=&quot;font-size: 18px;&quot;&gt;name&lt;/font&gt;" style="rounded=0;whiteSpace=wrap;html=1;" vertex="1" parent="1">
          <mxGeometry x="360" y="180" width="120" height="60" as="geometry" />
        </mxCell>
        <mxCell id="KrxZb_zsHXh1Ge1TOmgq-8" value="&lt;span style=&quot;font-size: 18px;&quot;&gt;created_at&lt;/span&gt;" style="rounded=0;whiteSpace=wrap;html=1;" vertex="1" parent="1">
          <mxGeometry x="480" y="180" width="120" height="60" as="geometry" />
        </mxCell>
        <mxCell id="KrxZb_zsHXh1Ge1TOmgq-9" value="&lt;font style=&quot;font-size: 18px;&quot;&gt;last_updated_at&lt;/font&gt;" style="rounded=0;whiteSpace=wrap;html=1;" vertex="1" parent="1">
          <mxGeometry x="600" y="180" width="140" height="60" as="geometry" />
        </mxCell>
        <mxCell id="KrxZb_zsHXh1Ge1TOmgq-12" style="edgeStyle=orthogonalEdgeStyle;rounded=0;orthogonalLoop=1;jettySize=auto;html=1;exitX=1;exitY=0.5;exitDx=0;exitDy=0;entryX=0.667;entryY=0;entryDx=0;entryDy=0;entryPerimeter=0;" edge="1" parent="1" source="KrxZb_zsHXh1Ge1TOmgq-10" target="KrxZb_zsHXh1Ge1TOmgq-1">
          <mxGeometry relative="1" as="geometry">
            <mxPoint x="835" y="220" as="sourcePoint" />
            <mxPoint x="470" y="-210" as="targetPoint" />
            <Array as="points">
              <mxPoint x="880" y="210" />
              <mxPoint x="945" y="210" />
              <mxPoint x="945" y="-320" />
              <mxPoint x="470" y="-320" />
            </Array>
          </mxGeometry>
        </mxCell>
        <mxCell id="KrxZb_zsHXh1Ge1TOmgq-10" value="&lt;font style=&quot;font-size: 18px;&quot;&gt;project_id&lt;/font&gt;" style="rounded=0;whiteSpace=wrap;html=1;" vertex="1" parent="1">
          <mxGeometry x="740" y="180" width="140" height="60" as="geometry" />
        </mxCell>
        <mxCell id="KrxZb_zsHXh1Ge1TOmgq-13" value="&lt;u&gt;&lt;font style=&quot;font-size: 18px;&quot;&gt;branch_id&lt;/font&gt;&lt;/u&gt;" style="rounded=0;whiteSpace=wrap;html=1;" vertex="1" parent="1">
          <mxGeometry x="170" y="60" width="120" height="60" as="geometry" />
        </mxCell>
        <mxCell id="KrxZb_zsHXh1Ge1TOmgq-14" value="&lt;font style=&quot;font-size: 18px;&quot;&gt;name&lt;/font&gt;" style="rounded=0;whiteSpace=wrap;html=1;" vertex="1" parent="1">
          <mxGeometry x="290" y="60" width="120" height="60" as="geometry" />
        </mxCell>
        <mxCell id="KrxZb_zsHXh1Ge1TOmgq-15" value="&lt;span style=&quot;font-size: 18px;&quot;&gt;created_at&lt;/span&gt;" style="rounded=0;whiteSpace=wrap;html=1;" vertex="1" parent="1">
          <mxGeometry x="410" y="60" width="120" height="60" as="geometry" />
        </mxCell>
        <mxCell id="KrxZb_zsHXh1Ge1TOmgq-16" value="&lt;font style=&quot;font-size: 18px;&quot;&gt;last_commit_hash&lt;/font&gt;" style="rounded=0;whiteSpace=wrap;html=1;" vertex="1" parent="1">
          <mxGeometry x="530" y="60" width="180" height="60" as="geometry" />
        </mxCell>
        <mxCell id="KrxZb_zsHXh1Ge1TOmgq-18" style="edgeStyle=orthogonalEdgeStyle;rounded=0;orthogonalLoop=1;jettySize=auto;html=1;exitX=0.5;exitY=1;exitDx=0;exitDy=0;entryX=0.5;entryY=0;entryDx=0;entryDy=0;" edge="1" parent="1" source="KrxZb_zsHXh1Ge1TOmgq-17" target="KrxZb_zsHXh1Ge1TOmgq-6">
          <mxGeometry relative="1" as="geometry" />
        </mxCell>
        <mxCell id="KrxZb_zsHXh1Ge1TOmgq-17" value="&lt;font style=&quot;font-size: 18px;&quot;&gt;repo_id&lt;/font&gt;" style="rounded=0;whiteSpace=wrap;html=1;" vertex="1" parent="1">
          <mxGeometry x="710" y="60" width="140" height="60" as="geometry" />
        </mxCell>
        <mxCell id="KrxZb_zsHXh1Ge1TOmgq-19" value="&lt;u&gt;&lt;font style=&quot;font-size: 18px;&quot;&gt;merge_req_id&lt;/font&gt;&lt;/u&gt;" style="rounded=0;whiteSpace=wrap;html=1;" vertex="1" parent="1">
          <mxGeometry x="-680" y="-90" width="120" height="60" as="geometry" />
        </mxCell>
        <mxCell id="KrxZb_zsHXh1Ge1TOmgq-20" value="&lt;font style=&quot;font-size: 18px;&quot;&gt;title&lt;/font&gt;" style="rounded=0;whiteSpace=wrap;html=1;" vertex="1" parent="1">
          <mxGeometry x="-320" y="-90" width="120" height="60" as="geometry" />
        </mxCell>
        <mxCell id="KrxZb_zsHXh1Ge1TOmgq-21" value="&lt;span style=&quot;font-size: 18px;&quot;&gt;created_at&lt;/span&gt;" style="rounded=0;whiteSpace=wrap;html=1;" vertex="1" parent="1">
          <mxGeometry x="-200" y="-90" width="120" height="60" as="geometry" />
        </mxCell>
        <mxCell id="KrxZb_zsHXh1Ge1TOmgq-22" value="&lt;font style=&quot;font-size: 18px;&quot;&gt;description&lt;/font&gt;" style="rounded=0;whiteSpace=wrap;html=1;" vertex="1" parent="1">
          <mxGeometry x="-80" y="-90" width="140" height="60" as="geometry" />
        </mxCell>
        <mxCell id="KrxZb_zsHXh1Ge1TOmgq-23" value="&lt;font style=&quot;font-size: 18px;&quot;&gt;status&lt;/font&gt;" style="rounded=0;whiteSpace=wrap;html=1;" vertex="1" parent="1">
          <mxGeometry x="60" y="-90" width="140" height="60" as="geometry" />
        </mxCell>
        <mxCell id="KrxZb_zsHXh1Ge1TOmgq-26" style="edgeStyle=orthogonalEdgeStyle;rounded=0;orthogonalLoop=1;jettySize=auto;html=1;exitX=0.5;exitY=1;exitDx=0;exitDy=0;entryX=0.25;entryY=0;entryDx=0;entryDy=0;" edge="1" parent="1" source="KrxZb_zsHXh1Ge1TOmgq-24" target="KrxZb_zsHXh1Ge1TOmgq-13">
          <mxGeometry relative="1" as="geometry">
            <Array as="points">
              <mxPoint x="210" y="-30" />
              <mxPoint x="210" y="15" />
              <mxPoint x="200" y="15" />
            </Array>
          </mxGeometry>
        </mxCell>
        <mxCell id="KrxZb_zsHXh1Ge1TOmgq-24" value="&lt;font style=&quot;font-size: 18px;&quot;&gt;source_branch_id&lt;/font&gt;" style="rounded=0;whiteSpace=wrap;html=1;" vertex="1" parent="1">
          <mxGeometry x="200" y="-90" width="180" height="60" as="geometry" />
        </mxCell>
        <mxCell id="KrxZb_zsHXh1Ge1TOmgq-27" style="edgeStyle=orthogonalEdgeStyle;rounded=0;orthogonalLoop=1;jettySize=auto;html=1;exitX=0.5;exitY=1;exitDx=0;exitDy=0;entryX=0.5;entryY=0;entryDx=0;entryDy=0;" edge="1" parent="1" source="KrxZb_zsHXh1Ge1TOmgq-25" target="KrxZb_zsHXh1Ge1TOmgq-13">
          <mxGeometry relative="1" as="geometry" />
        </mxCell>
        <mxCell id="KrxZb_zsHXh1Ge1TOmgq-25" value="&lt;font style=&quot;font-size: 18px;&quot;&gt;target_branch_id&lt;/font&gt;" style="rounded=0;whiteSpace=wrap;html=1;" vertex="1" parent="1">
          <mxGeometry x="380" y="-90" width="180" height="60" as="geometry" />
        </mxCell>
        <mxCell id="KrxZb_zsHXh1Ge1TOmgq-28" value="&lt;u&gt;&lt;font style=&quot;font-size: 18px;&quot;&gt;user_id&lt;/font&gt;&lt;/u&gt;" style="rounded=0;whiteSpace=wrap;html=1;" vertex="1" parent="1">
          <mxGeometry x="-300" y="-280" width="120" height="60" as="geometry" />
        </mxCell>
        <mxCell id="KrxZb_zsHXh1Ge1TOmgq-29" value="&lt;font style=&quot;font-size: 18px;&quot;&gt;username&lt;/font&gt;" style="rounded=0;whiteSpace=wrap;html=1;" vertex="1" parent="1">
          <mxGeometry x="-180" y="-280" width="120" height="60" as="geometry" />
        </mxCell>
        <mxCell id="KrxZb_zsHXh1Ge1TOmgq-30" value="&lt;span style=&quot;font-size: 18px;&quot;&gt;email&lt;/span&gt;" style="rounded=0;whiteSpace=wrap;html=1;" vertex="1" parent="1">
          <mxGeometry x="-60" y="-280" width="120" height="60" as="geometry" />
        </mxCell>
        <mxCell id="KrxZb_zsHXh1Ge1TOmgq-31" value="&lt;font style=&quot;font-size: 18px;&quot;&gt;created_at&lt;/font&gt;" style="rounded=0;whiteSpace=wrap;html=1;" vertex="1" parent="1">
          <mxGeometry x="60" y="-280" width="140" height="60" as="geometry" />
        </mxCell>
        <mxCell id="KrxZb_zsHXh1Ge1TOmgq-32" value="&lt;font style=&quot;font-size: 18px;&quot;&gt;password_hash&lt;/font&gt;" style="rounded=0;whiteSpace=wrap;html=1;" vertex="1" parent="1">
          <mxGeometry x="200" y="-280" width="140" height="60" as="geometry" />
        </mxCell>
        <mxCell id="KrxZb_zsHXh1Ge1TOmgq-39" style="edgeStyle=orthogonalEdgeStyle;rounded=0;orthogonalLoop=1;jettySize=auto;html=1;exitX=0.5;exitY=0;exitDx=0;exitDy=0;entryX=0.25;entryY=1;entryDx=0;entryDy=0;" edge="1" parent="1" source="KrxZb_zsHXh1Ge1TOmgq-35" target="KrxZb_zsHXh1Ge1TOmgq-28">
          <mxGeometry relative="1" as="geometry">
            <Array as="points">
              <mxPoint x="-500" y="-170" />
              <mxPoint x="-270" y="-170" />
            </Array>
          </mxGeometry>
        </mxCell>
        <mxCell id="KrxZb_zsHXh1Ge1TOmgq-35" value="&lt;u&gt;&lt;font style=&quot;font-size: 18px;&quot;&gt;opened_by&lt;/font&gt;&lt;/u&gt;" style="rounded=0;whiteSpace=wrap;html=1;" vertex="1" parent="1">
          <mxGeometry x="-560" y="-90" width="120" height="60" as="geometry" />
        </mxCell>
        <mxCell id="KrxZb_zsHXh1Ge1TOmgq-40" style="edgeStyle=orthogonalEdgeStyle;rounded=0;orthogonalLoop=1;jettySize=auto;html=1;exitX=0.5;exitY=0;exitDx=0;exitDy=0;entryX=0.75;entryY=1;entryDx=0;entryDy=0;" edge="1" parent="1" source="KrxZb_zsHXh1Ge1TOmgq-36" target="KrxZb_zsHXh1Ge1TOmgq-28">
          <mxGeometry relative="1" as="geometry" />
        </mxCell>
        <mxCell id="KrxZb_zsHXh1Ge1TOmgq-36" value="&lt;u&gt;&lt;font style=&quot;font-size: 18px;&quot;&gt;aproved_by&lt;/font&gt;&lt;/u&gt;" style="rounded=0;whiteSpace=wrap;html=1;" vertex="1" parent="1">
          <mxGeometry x="-440" y="-90" width="120" height="60" as="geometry" />
        </mxCell>
        <mxCell id="KrxZb_zsHXh1Ge1TOmgq-41" value="&lt;u&gt;&lt;font style=&quot;font-size: 18px;&quot;&gt;issue_id&lt;/font&gt;&lt;/u&gt;" style="rounded=0;whiteSpace=wrap;html=1;" vertex="1" parent="1">
          <mxGeometry x="-540" y="-460" width="120" height="60" as="geometry" />
        </mxCell>
        <mxCell id="KrxZb_zsHXh1Ge1TOmgq-42" value="&lt;font style=&quot;font-size: 18px;&quot;&gt;title&lt;/font&gt;" style="rounded=0;whiteSpace=wrap;html=1;" vertex="1" parent="1">
          <mxGeometry x="-420" y="-460" width="120" height="60" as="geometry" />
        </mxCell>
        <mxCell id="KrxZb_zsHXh1Ge1TOmgq-43" value="&lt;span style=&quot;font-size: 18px;&quot;&gt;description&lt;/span&gt;" style="rounded=0;whiteSpace=wrap;html=1;" vertex="1" parent="1">
          <mxGeometry x="-300" y="-460" width="120" height="60" as="geometry" />
        </mxCell>
        <mxCell id="KrxZb_zsHXh1Ge1TOmgq-44" value="&lt;font style=&quot;font-size: 18px;&quot;&gt;created_at&lt;/font&gt;" style="rounded=0;whiteSpace=wrap;html=1;" vertex="1" parent="1">
          <mxGeometry x="-180" y="-460" width="140" height="60" as="geometry" />
        </mxCell>
        <mxCell id="KrxZb_zsHXh1Ge1TOmgq-48" style="edgeStyle=orthogonalEdgeStyle;rounded=0;orthogonalLoop=1;jettySize=auto;html=1;exitX=0.5;exitY=1;exitDx=0;exitDy=0;entryX=0.25;entryY=0;entryDx=0;entryDy=0;" edge="1" parent="1" source="KrxZb_zsHXh1Ge1TOmgq-46" target="KrxZb_zsHXh1Ge1TOmgq-28">
          <mxGeometry relative="1" as="geometry" />
        </mxCell>
        <mxCell id="KrxZb_zsHXh1Ge1TOmgq-46" value="&lt;font style=&quot;font-size: 18px;&quot;&gt;created_by&lt;/font&gt;" style="rounded=0;whiteSpace=wrap;html=1;" vertex="1" parent="1">
          <mxGeometry x="-40" y="-460" width="140" height="60" as="geometry" />
        </mxCell>
        <mxCell id="KrxZb_zsHXh1Ge1TOmgq-49" style="edgeStyle=orthogonalEdgeStyle;rounded=0;orthogonalLoop=1;jettySize=auto;html=1;exitX=0.5;exitY=1;exitDx=0;exitDy=0;entryX=0.75;entryY=0;entryDx=0;entryDy=0;" edge="1" parent="1" source="KrxZb_zsHXh1Ge1TOmgq-47" target="KrxZb_zsHXh1Ge1TOmgq-28">
          <mxGeometry relative="1" as="geometry">
            <Array as="points">
              <mxPoint x="170" y="-320" />
              <mxPoint x="-210" y="-320" />
            </Array>
          </mxGeometry>
        </mxCell>
        <mxCell id="KrxZb_zsHXh1Ge1TOmgq-47" value="&lt;font style=&quot;font-size: 18px;&quot;&gt;assigned_to&lt;/font&gt;" style="rounded=0;whiteSpace=wrap;html=1;" vertex="1" parent="1">
          <mxGeometry x="100" y="-460" width="140" height="60" as="geometry" />
        </mxCell>
        <mxCell id="KrxZb_zsHXh1Ge1TOmgq-52" style="edgeStyle=orthogonalEdgeStyle;rounded=0;orthogonalLoop=1;jettySize=auto;html=1;exitX=0.5;exitY=0;exitDx=0;exitDy=0;entryX=0;entryY=0.5;entryDx=0;entryDy=0;" edge="1" parent="1" source="KrxZb_zsHXh1Ge1TOmgq-51" target="KrxZb_zsHXh1Ge1TOmgq-28">
          <mxGeometry relative="1" as="geometry">
            <Array as="points">
              <mxPoint x="300" y="130" />
              <mxPoint x="-700" y="130" />
              <mxPoint x="-700" y="-250" />
            </Array>
          </mxGeometry>
        </mxCell>
        <mxCell id="KrxZb_zsHXh1Ge1TOmgq-51" value="&lt;font style=&quot;font-size: 18px;&quot;&gt;owned_by&lt;/font&gt;" style="rounded=0;whiteSpace=wrap;html=1;" vertex="1" parent="1">
          <mxGeometry x="240" y="180" width="120" height="60" as="geometry" />
        </mxCell>
        <mxCell id="KrxZb_zsHXh1Ge1TOmgq-59" style="edgeStyle=orthogonalEdgeStyle;rounded=0;orthogonalLoop=1;jettySize=auto;html=1;exitX=0.5;exitY=1;exitDx=0;exitDy=0;entryX=0.5;entryY=0;entryDx=0;entryDy=0;" edge="1" parent="1" source="KrxZb_zsHXh1Ge1TOmgq-53" target="KrxZb_zsHXh1Ge1TOmgq-28">
          <mxGeometry relative="1" as="geometry" />
        </mxCell>
        <mxCell id="KrxZb_zsHXh1Ge1TOmgq-53" value="&lt;u&gt;&lt;font style=&quot;font-size: 18px;&quot;&gt;user_id&lt;/font&gt;&lt;/u&gt;" style="rounded=0;whiteSpace=wrap;html=1;" vertex="1" parent="1">
          <mxGeometry x="410" y="-500" width="120" height="60" as="geometry" />
        </mxCell>
        <mxCell id="KrxZb_zsHXh1Ge1TOmgq-60" style="edgeStyle=orthogonalEdgeStyle;rounded=0;orthogonalLoop=1;jettySize=auto;html=1;exitX=0.25;exitY=1;exitDx=0;exitDy=0;entryX=0.5;entryY=0;entryDx=0;entryDy=0;" edge="1" parent="1" source="KrxZb_zsHXh1Ge1TOmgq-54">
          <mxGeometry relative="1" as="geometry">
            <mxPoint x="540" y="-420" as="sourcePoint" />
            <mxPoint x="560" y="-170" as="targetPoint" />
          </mxGeometry>
        </mxCell>
        <mxCell id="KrxZb_zsHXh1Ge1TOmgq-54" value="&lt;font style=&quot;font-size: 18px;&quot;&gt;&lt;u&gt;project_id&lt;/u&gt;&lt;/font&gt;" style="rounded=0;whiteSpace=wrap;html=1;" vertex="1" parent="1">
          <mxGeometry x="530" y="-500" width="120" height="60" as="geometry" />
        </mxCell>
        <mxCell id="KrxZb_zsHXh1Ge1TOmgq-55" value="&lt;span style=&quot;font-size: 18px;&quot;&gt;added_at&lt;/span&gt;" style="rounded=0;whiteSpace=wrap;html=1;" vertex="1" parent="1">
          <mxGeometry x="650" y="-500" width="120" height="60" as="geometry" />
        </mxCell>
        <mxCell id="KrxZb_zsHXh1Ge1TOmgq-62" value="&lt;u&gt;&lt;font style=&quot;font-size: 18px;&quot;&gt;comment_id&lt;/font&gt;&lt;/u&gt;" style="rounded=0;whiteSpace=wrap;html=1;" vertex="1" parent="1">
          <mxGeometry x="-920" y="-620" width="120" height="60" as="geometry" />
        </mxCell>
        <mxCell id="KrxZb_zsHXh1Ge1TOmgq-63" value="&lt;font style=&quot;font-size: 18px;&quot;&gt;&lt;u&gt;content&lt;/u&gt;&lt;/font&gt;" style="rounded=0;whiteSpace=wrap;html=1;" vertex="1" parent="1">
          <mxGeometry x="-800" y="-620" width="120" height="60" as="geometry" />
        </mxCell>
        <mxCell id="KrxZb_zsHXh1Ge1TOmgq-64" value="&lt;span style=&quot;font-size: 18px;&quot;&gt;added_at&lt;/span&gt;" style="rounded=0;whiteSpace=wrap;html=1;" vertex="1" parent="1">
          <mxGeometry x="-680" y="-620" width="120" height="60" as="geometry" />
        </mxCell>
        <mxCell id="KrxZb_zsHXh1Ge1TOmgq-65" value="&lt;span style=&quot;font-size: 18px;&quot;&gt;parent_type&lt;/span&gt;" style="rounded=0;whiteSpace=wrap;html=1;" vertex="1" parent="1">
          <mxGeometry x="-560" y="-620" width="120" height="60" as="geometry" />
        </mxCell>
        <mxCell id="KrxZb_zsHXh1Ge1TOmgq-67" style="edgeStyle=orthogonalEdgeStyle;rounded=0;orthogonalLoop=1;jettySize=auto;html=1;exitX=0.5;exitY=0;exitDx=0;exitDy=0;entryX=0.5;entryY=0;entryDx=0;entryDy=0;" edge="1" parent="1" source="KrxZb_zsHXh1Ge1TOmgq-66" target="KrxZb_zsHXh1Ge1TOmgq-62">
          <mxGeometry relative="1" as="geometry">
            <Array as="points">
              <mxPoint x="-380" y="-660" />
              <mxPoint x="-860" y="-660" />
            </Array>
          </mxGeometry>
        </mxCell>
        <mxCell id="KrxZb_zsHXh1Ge1TOmgq-68" style="edgeStyle=orthogonalEdgeStyle;rounded=0;orthogonalLoop=1;jettySize=auto;html=1;exitX=0.5;exitY=1;exitDx=0;exitDy=0;entryX=0.5;entryY=0;entryDx=0;entryDy=0;" edge="1" parent="1" source="KrxZb_zsHXh1Ge1TOmgq-66" target="KrxZb_zsHXh1Ge1TOmgq-41">
          <mxGeometry relative="1" as="geometry" />
        </mxCell>
        <mxCell id="KrxZb_zsHXh1Ge1TOmgq-69" style="edgeStyle=orthogonalEdgeStyle;rounded=0;orthogonalLoop=1;jettySize=auto;html=1;exitX=0.25;exitY=1;exitDx=0;exitDy=0;" edge="1" parent="1" source="KrxZb_zsHXh1Ge1TOmgq-66" target="KrxZb_zsHXh1Ge1TOmgq-19">
          <mxGeometry relative="1" as="geometry">
            <Array as="points">
              <mxPoint x="-410" y="-530" />
              <mxPoint x="-620" y="-530" />
            </Array>
          </mxGeometry>
        </mxCell>
        <mxCell id="KrxZb_zsHXh1Ge1TOmgq-66" value="&lt;span style=&quot;font-size: 18px;&quot;&gt;parent_id&lt;/span&gt;" style="rounded=0;whiteSpace=wrap;html=1;" vertex="1" parent="1">
          <mxGeometry x="-440" y="-620" width="120" height="60" as="geometry" />
        </mxCell>
        <mxCell id="KrxZb_zsHXh1Ge1TOmgq-71" style="edgeStyle=orthogonalEdgeStyle;rounded=0;orthogonalLoop=1;jettySize=auto;html=1;exitX=0.5;exitY=0;exitDx=0;exitDy=0;entryX=0.5;entryY=1;entryDx=0;entryDy=0;" edge="1" parent="1" source="KrxZb_zsHXh1Ge1TOmgq-70" target="KrxZb_zsHXh1Ge1TOmgq-6">
          <mxGeometry relative="1" as="geometry">
            <Array as="points">
              <mxPoint x="310" y="-540" />
              <mxPoint x="980" y="-540" />
              <mxPoint x="980" y="260" />
              <mxPoint x="180" y="260" />
            </Array>
          </mxGeometry>
        </mxCell>
        <mxCell id="KrxZb_zsHXh1Ge1TOmgq-70" value="&lt;font style=&quot;font-size: 18px;&quot;&gt;repo_id&lt;/font&gt;" style="rounded=0;whiteSpace=wrap;html=1;" vertex="1" parent="1">
          <mxGeometry x="240" y="-460" width="140" height="60" as="geometry" />
        </mxCell>
        <mxCell id="KrxZb_zsHXh1Ge1TOmgq-72" value="COMMENTS" style="text;strokeColor=none;fillColor=none;html=1;fontSize=24;fontStyle=1;verticalAlign=middle;align=center;" vertex="1" parent="1">
          <mxGeometry x="-820" y="-660" width="100" height="40" as="geometry" />
        </mxCell>
        <mxCell id="KrxZb_zsHXh1Ge1TOmgq-73" value="ISSUES" style="text;strokeColor=none;fillColor=none;html=1;fontSize=24;fontStyle=1;verticalAlign=middle;align=center;" vertex="1" parent="1">
          <mxGeometry x="-460" y="-500" width="100" height="40" as="geometry" />
        </mxCell>
        <mxCell id="KrxZb_zsHXh1Ge1TOmgq-74" value="MERGE_REQUESTS" style="text;strokeColor=none;fillColor=none;html=1;fontSize=24;fontStyle=1;verticalAlign=middle;align=center;" vertex="1" parent="1">
          <mxGeometry x="-550" y="-130" width="100" height="40" as="geometry" />
        </mxCell>
        <mxCell id="KrxZb_zsHXh1Ge1TOmgq-75" value="USERS" style="text;strokeColor=none;fillColor=none;html=1;fontSize=24;fontStyle=1;verticalAlign=middle;align=center;" vertex="1" parent="1">
          <mxGeometry x="-170" y="-310" width="100" height="40" as="geometry" />
        </mxCell>
        <mxCell id="KrxZb_zsHXh1Ge1TOmgq-76" value="REPOS" style="text;strokeColor=none;fillColor=none;html=1;fontSize=24;fontStyle=1;verticalAlign=middle;align=center;" vertex="1" parent="1">
          <mxGeometry x="200" y="150" width="100" height="40" as="geometry" />
        </mxCell>
        <mxCell id="KrxZb_zsHXh1Ge1TOmgq-77" value="BRANCHES" style="text;strokeColor=none;fillColor=none;html=1;fontSize=24;fontStyle=1;verticalAlign=middle;align=center;" vertex="1" parent="1">
          <mxGeometry x="260" y="30" width="100" height="40" as="geometry" />
        </mxCell>
        <mxCell id="KrxZb_zsHXh1Ge1TOmgq-79" value="PROJECTS" style="text;strokeColor=none;fillColor=none;html=1;fontSize=24;fontStyle=1;verticalAlign=middle;align=center;" vertex="1" parent="1">
          <mxGeometry x="400" y="-220" width="100" height="40" as="geometry" />
        </mxCell>
        <mxCell id="KrxZb_zsHXh1Ge1TOmgq-80" value="PROJECT_USER" style="text;strokeColor=none;fillColor=none;html=1;fontSize=24;fontStyle=1;verticalAlign=middle;align=center;" vertex="1" parent="1">
          <mxGeometry x="450" y="-540" width="100" height="40" as="geometry" />
        </mxCell>
      </root>
    </mxGraphModel>
  </diagram>
</mxfile>
